<svg width="15" height="15" viewBox="0 0 15 15" fill="none" xmlns="http://www.w3.org/2000/svg"><path fill="#0b0b0b" d="M14.49 9.4344L13.9356 8.496L11.2512 10.0848L14.232 6.3972L14.6832 6.1392L14.5716 5.9772L14.7768 5.724L13.836 4.9632L13.4052 5.496L4.7136 10.4352L7.9272 6.6816L13.9128 3.4944L13.344 2.4264L10.0836 4.1616L11.6892 2.2872L10.77 1.5L7.1568 5.7204L3.5676 7.632L6.3156 4.104L8.0364 3.234L7.4904 2.154L2.4744 4.6908L3.8424 2.9316L2.8872 2.1888L0 5.9004L0.0443994 5.9352L0.5844 7.002L3.7848 5.3832L0.8676 9.1296L1.3452 9.5004L1.6296 10.0356L5.0004 8.2404L1.2888 12.576L2.208 13.362L2.3928 13.146L11.346 8.0424L8.3736 11.7192L8.4216 11.7588L8.4168 11.7612L9.0336 12.8028L12.9864 10.464L11.4648 12.8496L12.4848 13.5L14.9088 9.7008L14.49 9.4344Z"/></svg>
